<svg width="92" height="170" viewBox="0 0 92 170" fill="none" xmlns="http://www.w3.org/2000/svg">
<mask id="path-1-inside-1" fill="white">
<path fill-rule="evenodd" clip-rule="evenodd" d="M14.0712 84.9628L91.9619 7.07204L84.8909 0.000976562L0 85.0009L84.8909 169.925L91.9619 162.854L14.0712 84.9628Z"/>
</mask>
<path fill-rule="evenodd" clip-rule="evenodd" d="M14.0712 84.9628L91.9619 7.07204L84.8909 0.000976562L0 85.0009L84.8909 169.925L91.9619 162.854L14.0712 84.9628Z" fill="white"/>
<path d="M14.0712 84.9628L13.3641 84.2557L12.657 84.9628L13.3641 85.6699L14.0712 84.9628ZM91.9619 7.07204L92.6691 7.77915L93.3762 7.07204L92.6691 6.36494L91.9619 7.07204ZM84.8909 0.000976562L85.598 -0.70613L84.8904 -1.41369L84.1833 -0.705676L84.8909 0.000976562ZM0 85.0009L-0.707561 84.2943L-1.41362 85.0012L-0.707244 85.7079L0 85.0009ZM84.8909 169.925L84.1836 170.632L84.8907 171.339L85.598 170.632L84.8909 169.925ZM91.9619 162.854L92.669 163.561L93.3762 162.854L92.669 162.146L91.9619 162.854ZM14.7783 85.6699L92.6691 7.77915L91.2548 6.36494L13.3641 84.2557L14.7783 85.6699ZM92.6691 6.36494L85.598 -0.70613L84.1838 0.708083L91.2548 7.77915L92.6691 6.36494ZM84.1833 -0.705676L-0.707561 84.2943L0.707561 85.7076L85.5984 0.707629L84.1833 -0.705676ZM85.5981 169.218L0.707244 84.2939L-0.707244 85.7079L84.1836 170.632L85.5981 169.218ZM91.2548 162.146L84.1838 169.218L85.598 170.632L92.669 163.561L91.2548 162.146ZM13.3641 85.6699L91.2548 163.561L92.669 162.146L14.7783 84.2557L13.3641 85.6699Z" fill="white" mask="url(#path-1-inside-1)"/>
</svg>
