<svg width="92" height="170" viewBox="0 0 92 170" fill="none" xmlns="http://www.w3.org/2000/svg">
<mask id="path-1-inside-1" fill="white">
<path fill-rule="evenodd" clip-rule="evenodd" d="M14.0712 84.9618L91.9619 7.07107L84.8909 0L0 84.9999L84.8909 169.924L91.9619 162.853L14.0712 84.9618Z"/>
</mask>
<path d="M14.0712 84.9618L13.3641 84.2547L12.657 84.9618L13.3641 85.669L14.0712 84.9618ZM91.9619 7.07107L92.6691 7.77817L93.3762 7.07107L92.6691 6.36396L91.9619 7.07107ZM84.8909 0L85.598 -0.707107L84.8904 -1.41467L84.1833 -0.706653L84.8909 0ZM0 84.9999L-0.707561 84.2933L-1.41362 85.0002L-0.707244 85.7069L0 84.9999ZM84.8909 169.924L84.1836 170.631L84.8907 171.338L85.598 170.631L84.8909 169.924ZM91.9619 162.853L92.669 163.56L93.3762 162.853L92.669 162.146L91.9619 162.853ZM14.7783 85.669L92.6691 7.77817L91.2548 6.36396L13.3641 84.2547L14.7783 85.669ZM92.6691 6.36396L85.598 -0.707107L84.1838 0.707107L91.2548 7.77817L92.6691 6.36396ZM84.1833 -0.706653L-0.707561 84.2933L0.707561 85.7066L85.5984 0.706653L84.1833 -0.706653ZM85.5981 169.217L0.707244 84.293L-0.707244 85.7069L84.1836 170.631L85.5981 169.217ZM91.2548 162.146L84.1838 169.217L85.598 170.631L92.669 163.56L91.2548 162.146ZM13.3641 85.669L91.2548 163.56L92.669 162.146L14.7783 84.2547L13.3641 85.669Z" fill="#BB8C5A" mask="url(#path-1-inside-1)"/>
</svg>
