<svg width="92" height="170" viewBox="0 0 92 170" fill="none" xmlns="http://www.w3.org/2000/svg">
<mask id="path-1-inside-1" fill="white">
<path fill-rule="evenodd" clip-rule="evenodd" d="M77.8907 84.9618L-3.05176e-05 7.07107L7.07104 0L91.9619 84.9999L7.07104 169.924L-2.28882e-05 162.853L77.8907 84.9618Z"/>
</mask>
<path d="M77.8907 84.9618L78.5979 84.2547L79.305 84.9618L78.5979 85.669L77.8907 84.9618ZM-3.05176e-05 7.07107L-0.707138 7.77817L-1.41425 7.07107L-0.707138 6.36396L-3.05176e-05 7.07107ZM7.07104 0L6.36393 -0.707107L7.0715 -1.41467L7.77859 -0.706653L7.07104 0ZM91.9619 84.9999L92.6695 84.2933L93.3755 85.0002L92.6692 85.7069L91.9619 84.9999ZM7.07104 169.924L7.77828 170.631L7.07117 171.338L6.36393 170.631L7.07104 169.924ZM-2.28882e-05 162.853L-0.70713 163.56L-1.41424 162.853L-0.70713 162.146L-2.28882e-05 162.853ZM77.1836 85.669L-0.707138 7.77817L0.707077 6.36396L78.5979 84.2547L77.1836 85.669ZM-0.707138 6.36396L6.36393 -0.707107L7.77814 0.707107L0.707077 7.77817L-0.707138 6.36396ZM7.77859 -0.706653L92.6695 84.2933L91.2544 85.7066L6.36348 0.706653L7.77859 -0.706653ZM6.36379 169.217L91.2547 84.293L92.6692 85.7069L7.77828 170.631L6.36379 169.217ZM0.707085 162.146L7.77814 169.217L6.36393 170.631L-0.70713 163.56L0.707085 162.146ZM78.5979 85.669L0.707085 163.56L-0.70713 162.146L77.1836 84.2547L78.5979 85.669Z" fill="#BB8C5A" mask="url(#path-1-inside-1)"/>
</svg>
