<svg width="92" height="170" viewBox="0 0 92 170" fill="none" xmlns="http://www.w3.org/2000/svg">
<mask id="path-1-inside-1" fill="white">
<path fill-rule="evenodd" clip-rule="evenodd" d="M77.8907 84.9628L-3.05176e-05 7.07204L7.07104 0.000976562L91.9619 85.0009L7.07104 169.925L-2.28882e-05 162.854L77.8907 84.9628Z"/>
</mask>
<path fill-rule="evenodd" clip-rule="evenodd" d="M77.8907 84.9628L-3.05176e-05 7.07204L7.07104 0.000976562L91.9619 85.0009L7.07104 169.925L-2.28882e-05 162.854L77.8907 84.9628Z" fill="white"/>
<path d="M77.8907 84.9628L78.5979 84.2557L79.305 84.9628L78.5979 85.6699L77.8907 84.9628ZM-3.05176e-05 7.07204L-0.707138 7.77915L-1.41425 7.07204L-0.707138 6.36494L-3.05176e-05 7.07204ZM7.07104 0.000976562L6.36393 -0.70613L7.0715 -1.41369L7.77859 -0.705676L7.07104 0.000976562ZM91.9619 85.0009L92.6695 84.2943L93.3755 85.0012L92.6692 85.7079L91.9619 85.0009ZM7.07104 169.925L7.77828 170.632L7.07117 171.339L6.36393 170.632L7.07104 169.925ZM-2.28882e-05 162.854L-0.70713 163.561L-1.41424 162.854L-0.70713 162.146L-2.28882e-05 162.854ZM77.1836 85.6699L-0.707138 7.77915L0.707077 6.36494L78.5979 84.2557L77.1836 85.6699ZM-0.707138 6.36494L6.36393 -0.70613L7.77814 0.708083L0.707077 7.77915L-0.707138 6.36494ZM7.77859 -0.705676L92.6695 84.2943L91.2544 85.7076L6.36348 0.707629L7.77859 -0.705676ZM6.36379 169.218L91.2547 84.2939L92.6692 85.7079L7.77828 170.632L6.36379 169.218ZM0.707085 162.146L7.77814 169.218L6.36393 170.632L-0.70713 163.561L0.707085 162.146ZM78.5979 85.6699L0.707085 163.561L-0.70713 162.146L77.1836 84.2557L78.5979 85.6699Z" fill="white" mask="url(#path-1-inside-1)"/>
</svg>
