<svg width="42" height="28" viewBox="0 0 42 28" fill="none" xmlns="http://www.w3.org/2000/svg">
<path d="M6.07298 3.62627C5.46677 2.58206 4.90062 1.49233 4.37788 0.358747C4.22528 0.0269774 3.84587 -0.100334 3.5259 0.0864177C2.43701 0.723819 1.36034 1.41771 0.301378 2.16809C0.0745773 2.32913 -0.0253327 2.50787 0.0054413 2.80001C0.0366369 3.09257 0.249947 3.19881 0.498669 3.25656C1.11499 3.39821 1.73132 3.53985 2.34764 3.68192C0.577922 11.3708 0.83929 19.4079 3.13174 26.9934C3.26749 27.4462 3.81467 27.7641 4.21516 27.6325C4.61522 27.5002 4.87532 26.9386 4.74548 26.5061C2.53903 19.2021 2.28693 11.4635 3.99089 4.05964C4.4702 4.17009 4.9491 4.28012 5.42841 4.39056C5.67798 4.4479 5.91279 4.45085 6.06413 4.2388C6.21463 4.02676 6.20282 3.85012 6.07298 3.62627Z" fill="white"/>
<path d="M39.0844 9.05092C37.0613 6.9136 27.5939 3.45174 27.1917 3.30545C26.9485 3.21693 26.6913 3.17224 26.4278 3.17224C25.3385 3.17224 24.2669 3.94454 23.8795 5.00856C23.8209 5.1696 23.7282 5.59917 23.7058 6.06711C23.4461 5.99418 23.1789 5.95708 22.9091 5.95708C21.673 5.95708 20.5589 6.73781 20.136 7.89921C19.9033 8.5383 19.8974 9.2225 20.1141 9.85695C18.8899 9.81563 17.8423 10.5032 17.4313 11.633C17.1615 12.3728 17.2053 13.1616 17.5531 13.8546L10.0995 11.4399C9.70069 11.2949 9.29304 11.2211 8.88792 11.2211C7.60932 11.2211 6.54783 11.9534 6.11826 13.1329C5.54325 14.7146 6.38637 16.3726 8.09286 16.9936L20.8776 21.3399C20.9357 21.7231 21.077 22.3246 21.4151 23.1513C22.3121 25.3422 25.5261 27.6089 29.351 27.6089C30.1093 27.6089 30.8661 27.5187 31.6008 27.3412C36.6587 26.1204 39.5498 23.5851 41.2685 18.8632C43.0892 13.8601 41.1876 11.2726 39.0844 9.05092ZM40.0801 18.4303C38.5035 22.7622 35.961 24.9881 31.3041 26.112C30.6662 26.2658 30.0094 26.3442 29.351 26.3442C26.1007 26.3442 23.3083 24.4384 22.5853 22.672C22.4491 22.3394 22.3509 22.0544 22.2809 21.8175L26.4565 23.2365C26.7874 23.3482 27.1462 23.172 27.2583 22.8411C27.3705 22.5101 27.1942 22.1514 26.8629 22.0388L8.51189 15.8001C7.46262 15.4186 6.96686 14.4992 7.30664 13.5654C7.63799 12.6553 8.59409 12.2396 9.68847 12.6355L20.9244 16.2765C21.2313 16.376 21.5672 16.2267 21.6979 15.93C21.8286 15.6328 21.7131 15.2854 21.4311 15.1248L19.7575 14.1754C19.7267 14.1581 19.6947 14.1434 19.6614 14.1316C19.225 13.9731 18.8781 13.6742 18.6842 13.2901C18.4932 12.9112 18.47 12.4765 18.6193 12.0659C18.8385 11.4648 19.3439 11.1199 20.0066 11.1199C20.2385 11.1199 20.4754 11.1634 20.7115 11.2494L21.8969 11.6806C21.8977 11.681 21.899 11.681 21.8998 11.6815C22.2282 11.8012 22.5908 11.6317 22.7101 11.3033C22.8294 10.9754 22.6603 10.6124 22.3324 10.4931C21.9091 10.3392 21.5715 10.0294 21.3809 9.62129C21.1908 9.2128 21.1705 8.75498 21.3244 8.33216C21.566 7.6682 22.203 7.22176 22.9095 7.22176C23.1055 7.22176 23.2994 7.25633 23.4862 7.3242L26.0607 8.26134C26.3874 8.38022 26.7516 8.21201 26.8709 7.88362C26.9902 7.55522 26.8212 7.19225 26.4932 7.07295L24.9806 6.52239C24.9511 6.2429 24.9671 5.72058 25.0683 5.44109C25.3162 4.76153 26.1543 4.27378 26.7596 4.49426C29.4201 5.46259 36.6558 8.32499 38.1667 9.92103C40.1463 12.0124 41.6572 14.0962 40.0801 18.4303Z" fill="white"/>
</svg>
