<svg width="27" height="41" viewBox="0 0 27 41" fill="none" xmlns="http://www.w3.org/2000/svg">
<path d="M22.9901 3.59533C20.5291 1.32881 17.2129 0.0518331 13.6307 0H13.3598C5.99103 0.0989541 0 5.62625 0 12.3174V29.7004C0 35.9298 5.58719 41 12.4524 41H14.5476C21.4128 41 27 35.9298 27 29.7004V12.3174C27 9.02367 25.5319 5.83829 22.9901 3.59533ZM24.5722 29.6957C24.5722 34.601 20.073 38.5874 14.5476 38.5874H12.4524C6.92222 38.5874 2.42777 34.5963 2.42777 29.6957V12.3174C2.42777 7.11999 7.022 2.80841 12.766 2.44558V5.31525C12.0771 5.59798 11.5925 6.2671 11.5925 7.03988V12.586C11.5925 13.3588 12.0771 14.0279 12.766 14.3107V25.8883C12.766 26.2982 13.0938 26.6092 13.5261 26.6092C13.9252 26.6092 14.234 26.2935 14.234 25.8883V14.3154C14.9324 14.0326 15.4218 13.3682 15.4218 12.586V7.03988C15.4218 6.25767 14.9277 5.58855 14.234 5.31054V2.44558C16.9564 2.61522 19.4601 3.63303 21.351 5.38122C23.3987 7.18596 24.5722 9.71635 24.5722 12.3174V29.6957Z" fill="white"/>
</svg>
