<svg width="35" height="11" viewBox="0 0 35 11" fill="none" xmlns="http://www.w3.org/2000/svg">
<path d="M4.43044 10.13C3.0351 10.13 1.79577 9.64467 0.712438 8.674L1.34944 7.92C1.83477 8.362 2.3201 8.687 2.80544 8.895C3.29944 9.103 3.8541 9.207 4.46944 9.207C5.0761 9.207 5.56577 9.064 5.93844 8.778C6.3111 8.48333 6.49744 8.102 6.49744 7.634C6.49744 7.192 6.33277 6.841 6.00344 6.581C5.6741 6.321 5.0501 6.09567 4.13144 5.905C3.0481 5.671 2.2681 5.35467 1.79144 4.956C1.31477 4.55733 1.07644 3.98967 1.07644 3.253C1.07644 2.53367 1.3581 1.94 1.92144 1.472C2.48477 1.004 3.19977 0.77 4.06644 0.77C5.2711 0.77 6.3371 1.14267 7.26444 1.888L6.66644 2.681C5.86044 2.02233 4.9851 1.693 4.04044 1.693C3.45977 1.693 2.99177 1.836 2.63644 2.122C2.2811 2.39933 2.10344 2.75467 2.10344 3.188C2.10344 3.63867 2.27244 3.994 2.61044 4.254C2.9571 4.514 3.61144 4.748 4.57344 4.956C5.60477 5.18133 6.35444 5.49767 6.82244 5.905C7.2991 6.30367 7.53744 6.854 7.53744 7.556C7.53744 8.32733 7.2471 8.95133 6.66644 9.428C6.08577 9.896 5.34044 10.13 4.43044 10.13ZM12.4859 10.156C11.5152 10.156 10.6962 9.81367 10.0289 9.129C9.3702 8.43567 9.04087 7.608 9.04087 6.646C9.04087 5.684 9.3702 4.86067 10.0289 4.176C10.6962 3.48267 11.5152 3.136 12.4859 3.136C13.5259 3.136 14.4229 3.53467 15.1769 4.332L14.5399 5.008C13.9159 4.34933 13.2269 4.02 12.4729 4.02C11.7969 4.02 11.2249 4.27567 10.7569 4.787C10.2975 5.28967 10.0679 5.90933 10.0679 6.646C10.0679 7.374 10.3019 7.99367 10.7699 8.505C11.2465 9.00767 11.8359 9.259 12.5379 9.259C13.2572 9.259 13.9332 8.921 14.5659 8.245L15.2289 8.856C14.4489 9.72267 13.5345 10.156 12.4859 10.156ZM16.8836 10V3.279H17.8846V5.034C18.1446 4.45333 18.513 3.98967 18.9896 3.643C19.4663 3.29633 20.0123 3.136 20.6276 3.162V4.241H20.5496C19.7783 4.241 19.1413 4.50967 18.6386 5.047C18.136 5.58433 17.8846 6.34267 17.8846 7.322V10H16.8836ZM27.4372 9.129C26.7612 9.81367 25.9249 10.156 24.9282 10.156C23.9315 10.156 23.0995 9.81367 22.4322 9.129C21.7735 8.44433 21.4442 7.61667 21.4442 6.646C21.4442 5.684 21.7779 4.86067 22.4452 4.176C23.1212 3.48267 23.9575 3.136 24.9542 3.136C25.9509 3.136 26.7829 3.47833 27.4502 4.163C28.1175 4.84767 28.4512 5.67533 28.4512 6.646C28.4512 7.608 28.1132 8.43567 27.4372 9.129ZM24.9542 9.259C25.6735 9.259 26.2629 9.00767 26.7222 8.505C27.1902 8.00233 27.4242 7.38267 27.4242 6.646C27.4242 5.918 27.1815 5.29833 26.6962 4.787C26.2195 4.27567 25.6302 4.02 24.9282 4.02C24.2089 4.02 23.6195 4.27567 23.1602 4.787C22.7009 5.28967 22.4712 5.90933 22.4712 6.646C22.4712 7.374 22.7095 7.99367 23.1862 8.505C23.6629 9.00767 24.2522 9.259 24.9542 9.259ZM30.3555 10V0.51H31.3565V10H30.3555ZM33.7705 10V0.51H34.7715V10H33.7705Z" fill="white"/>
</svg>
