<svg width="38" height="13" viewBox="0 0 38 13" fill="none" xmlns="http://www.w3.org/2000/svg">
<path d="M3.84352 10.13C2.44819 10.13 1.20886 9.64467 0.125523 8.674L0.762524 7.92C1.24786 8.362 1.73319 8.687 2.21852 8.895C2.71252 9.103 3.26719 9.207 3.88252 9.207C4.48919 9.207 4.97886 9.064 5.35152 8.778C5.72419 8.48333 5.91052 8.102 5.91052 7.634C5.91052 7.192 5.74586 6.841 5.41652 6.581C5.08719 6.321 4.46319 6.09567 3.54452 5.905C2.46119 5.671 1.68119 5.35467 1.20452 4.956C0.727857 4.55733 0.489523 3.98967 0.489523 3.253C0.489523 2.53367 0.77119 1.94 1.33452 1.472C1.89786 1.004 2.61286 0.77 3.47952 0.77C4.68419 0.77 5.75019 1.14267 6.67752 1.888L6.07952 2.681C5.27352 2.02233 4.39819 1.693 3.45352 1.693C2.87286 1.693 2.40486 1.836 2.04952 2.122C1.69419 2.39933 1.51652 2.75467 1.51652 3.188C1.51652 3.63867 1.68552 3.994 2.02352 4.254C2.37019 4.514 3.02452 4.748 3.98652 4.956C5.01786 5.18133 5.76752 5.49767 6.23552 5.905C6.71219 6.30367 6.95052 6.854 6.95052 7.556C6.95052 8.32733 6.66019 8.95133 6.07952 9.428C5.49886 9.896 4.75352 10.13 3.84352 10.13ZM10.524 10.052L8.171 3.279H9.237L11.005 8.674L12.812 3.253H13.644L15.464 8.674L17.232 3.279H18.272L15.906 10.052H15.035L13.228 4.748L11.408 10.052H10.524ZM19.9663 1.81V0.705H21.1103V1.81H19.9663ZM20.0313 10V3.279H21.0323V10H20.0313ZM23.3553 12.08V3.279H24.3563V4.631C25.0323 3.63433 25.8903 3.136 26.9303 3.136C27.7883 3.136 28.538 3.45667 29.1793 4.098C29.8206 4.73067 30.1413 5.58 30.1413 6.646C30.1413 7.69467 29.8206 8.53967 29.1793 9.181C28.538 9.82233 27.7883 10.143 26.9303 10.143C25.873 10.143 25.015 9.66633 24.3563 8.713V12.08H23.3553ZM26.7483 9.246C27.4243 9.246 27.9876 9.012 28.4383 8.544C28.889 8.06733 29.1143 7.43033 29.1143 6.633C29.1143 5.86167 28.8846 5.23767 28.4253 4.761C27.966 4.27567 27.407 4.033 26.7483 4.033C26.0983 4.033 25.5306 4.28 25.0453 4.774C24.56 5.268 24.3173 5.892 24.3173 6.646C24.3173 7.4 24.56 8.024 25.0453 8.518C25.5306 9.00333 26.0983 9.246 26.7483 9.246ZM32.5861 7.049C32.6555 7.73367 32.9111 8.27967 33.3531 8.687C33.8038 9.08567 34.3368 9.285 34.9521 9.285C35.7581 9.285 36.4645 8.96867 37.0711 8.336L37.6951 8.895C36.9411 9.73567 36.0181 10.156 34.9261 10.156C33.9815 10.156 33.1841 9.831 32.5341 9.181C31.8928 8.52233 31.5721 7.67733 31.5721 6.646C31.5721 5.66667 31.8798 4.839 32.4951 4.163C33.1105 3.47833 33.8775 3.136 34.7961 3.136C35.7581 3.136 36.5208 3.474 37.0841 4.15C37.6475 4.826 37.9291 5.67533 37.9291 6.698C37.9291 6.828 37.9248 6.945 37.9161 7.049H32.5861ZM32.5861 6.243H36.9151C36.8545 5.593 36.6378 5.05567 36.2651 4.631C35.9011 4.19767 35.4028 3.981 34.7701 3.981C34.1981 3.981 33.7085 4.19333 33.3011 4.618C32.8938 5.04267 32.6555 5.58433 32.5861 6.243Z" fill="white"/>
</svg>
