<svg width="89" height="72" viewBox="0 0 89 72" fill="none" xmlns="http://www.w3.org/2000/svg">
<path fill-rule="evenodd" clip-rule="evenodd" d="M45.0182 6.63159L44.3111 5.92448L43.604 6.63159L3.68785 46.5477L1.41435 44.2742L44.2916 1.41362L87.2075 44.2745L84.9343 46.5477L45.0182 6.63159ZM3.68785 47.9619L4.39496 47.2548L43.604 8.0458L44.3111 7.33869L45.0182 8.0458L84.2272 47.2548L84.9343 47.9619L85.6414 47.2548L87.9151 44.9812L88.6222 44.2741L87.9146 43.5674L44.2912 0L0.707245 43.5671L0 44.2741L0.707107 44.9812L2.98074 47.2548L3.68785 47.9619ZM84.9343 71.9619L44.3111 31.3387L3.68785 71.9619L0 68.2741L44.2912 24L88.6222 68.2741L84.9343 71.9619Z" fill="#BB8C5A"/>
</svg>
